<svg width="35" height="35" viewBox="0 0 35 35" fill="none" xmlns="http://www.w3.org/2000/svg">
<rect width="35" height="35" rx="6" fill="#F3F4FF"/>
<path d="M17.3408 11.1801C17.3002 10.9628 17.1748 10.7706 16.9925 10.6457C16.8101 10.5209 16.5856 10.4736 16.3683 10.5142C16.1511 10.5549 15.9589 10.6802 15.834 10.8626C15.7091 11.045 15.6618 11.2695 15.7025 11.4867L15.9733 12.9367C15.1174 13.3771 14.4273 14.0831 14.0066 14.9488C13.5859 15.8145 13.4573 16.7934 13.64 17.7384L13.87 18.9659L13.9158 19.2126C14.1308 20.3576 13.7258 21.0976 13.3908 21.7109C13.1533 22.1442 12.9517 22.5142 13.0267 22.9184C13.1183 23.4067 13.21 23.8959 13.6517 23.8134L24.235 21.8326C24.675 21.7492 24.5833 21.2617 24.4917 20.7742C24.4058 20.3042 23.9616 19.8384 23.4958 19.3484C22.9908 18.8184 22.46 18.2601 22.3258 17.6392C22.1316 16.7351 22.0967 16.4834 22.0733 16.3167C22.0658 16.2642 22.06 16.2192 22.05 16.1651C21.8621 15.1248 21.3101 14.1854 20.4927 13.5151C19.6753 12.8448 18.646 12.4873 17.5892 12.5067L17.3408 11.1801Z" fill="#0452FB"/>
<path fill-rule="evenodd" clip-rule="evenodd" d="M13.4491 11.5649C13.6128 11.7132 13.7109 11.9205 13.7219 12.1411C13.7328 12.3618 13.6557 12.5777 13.5075 12.7415C12.5783 13.7665 12.0866 14.9124 11.9825 16.2915C11.9659 16.512 11.8624 16.7168 11.6948 16.861C11.5272 17.0052 11.3092 17.0769 11.0887 17.0603C10.8683 17.0437 10.6634 16.9402 10.5192 16.7726C10.3751 16.605 10.3034 16.387 10.32 16.1665C10.4533 14.4174 11.0941 12.9224 12.2716 11.6224C12.3452 11.5412 12.4339 11.4754 12.5329 11.4286C12.6319 11.3818 12.7391 11.355 12.8485 11.3496C12.9578 11.3443 13.0672 11.3605 13.1702 11.3975C13.2733 11.4344 13.3681 11.4913 13.4491 11.5649Z" fill="#0452FB"/>
<path d="M15.4583 24.4165C16.0416 25.0832 16.875 25.4998 17.7916 25.4998C19.125 25.4998 20.2083 24.5832 20.5416 23.4165L15.4583 24.4165Z" fill="#0452FB"/>
</svg>
