<svg width="18" height="18" viewBox="0 0 18 18" fill="none" xmlns="http://www.w3.org/2000/svg">
<path d="M9 9.75C10.797 9.75 12.4312 10.2705 13.6335 11.0032C14.2335 11.3707 14.7465 11.802 15.117 12.2708C15.4815 12.7327 15.75 13.2847 15.75 13.875C15.75 14.5087 15.4417 15.0083 14.9977 15.3645C14.5778 15.702 14.0235 15.9255 13.4347 16.0815C12.2513 16.3942 10.6718 16.5 9 16.5C7.32825 16.5 5.74875 16.395 4.56525 16.0815C3.9765 15.9255 3.42225 15.702 3.00225 15.3645C2.5575 15.0075 2.25 14.5087 2.25 13.875C2.25 13.2847 2.5185 12.7327 2.883 12.2708C3.2535 11.802 3.76575 11.3707 4.3665 11.0032C5.56875 10.2705 7.20375 9.75 9 9.75Z" fill="#6B6B6B"/>
<path d="M8.99999 1.5C11.8867 1.5 13.6912 4.62525 12.2475 7.125C11.9184 7.69506 11.445 8.16844 10.8749 8.49757C10.3049 8.8267 9.65824 8.99998 8.99999 9C6.11324 9 4.30874 5.87475 5.75249 3.375C6.08162 2.80494 6.55499 2.33156 7.12505 2.00243C7.6951 1.6733 8.34175 1.50002 8.99999 1.5Z" fill="#6B6B6B"/>
</svg>
