<svg width="18" height="18" viewBox="0 0 18 18" fill="none" xmlns="http://www.w3.org/2000/svg">
<path d="M6.74744 1.6875C7.0581 1.6875 7.30994 1.93934 7.30994 2.25V2.4375H6.18494V2.25C6.18494 1.93934 6.43678 1.6875 6.74744 1.6875Z" fill="#6B6B6B"/>
<path d="M7.125 7.3125C6.81434 7.3125 6.5625 7.56435 6.5625 7.875V9.375C6.5625 9.68565 6.81434 9.9375 7.125 9.9375C7.43566 9.9375 7.6875 9.68565 7.6875 9.375V7.875C7.6875 7.56435 7.43566 7.3125 7.125 7.3125Z" fill="#6B6B6B"/>
<path fill-rule="evenodd" clip-rule="evenodd" d="M12.5599 2.4375H13.4973C15.2577 2.4375 16.6848 3.86459 16.6848 5.625V9.2007C16.6848 9.85605 16.6131 10.5095 16.4709 11.1494C16.4492 11.2471 16.4239 11.3432 16.3949 11.4375C15.9187 12.9866 14.4829 14.0625 12.8393 14.0625H3.02053C2.97992 14.0625 2.93972 14.0612 2.89997 14.0586C1.6678 13.979 0.867855 12.6875 1.37924 11.537C1.82796 10.5273 2.05982 9.43477 2.05982 8.32987V5.625C2.05982 3.86459 3.48692 2.4375 5.24732 2.4375H6.18494V2.625C6.18494 2.93566 6.43678 3.1875 6.74744 3.1875C7.0581 3.1875 7.30994 2.93566 7.30994 2.625V2.4375H11.4349V2.625C11.4349 2.93566 11.6868 3.1875 11.9974 3.1875C12.3081 3.1875 12.5599 2.93566 12.5599 2.625V2.4375ZM5.4375 7.875C5.4375 6.94302 6.19302 6.1875 7.125 6.1875C8.05695 6.1875 8.8125 6.94302 8.8125 7.875V9.375C8.8125 10.307 8.05695 11.0625 7.125 11.0625C6.19302 11.0625 5.4375 10.307 5.4375 9.375V7.875ZM9.5625 6.75C9.5625 6.43934 9.81435 6.1875 10.125 6.1875H12.375C12.5617 6.1875 12.7361 6.28009 12.8407 6.43465C12.9454 6.58921 12.9666 6.7856 12.8973 6.9589L11.3973 10.7089C11.2819 10.9973 10.9545 11.1376 10.6661 11.0223C10.3777 10.9069 10.2374 10.5795 10.3527 10.2911L11.5442 7.3125H10.125C9.81435 7.3125 9.5625 7.06066 9.5625 6.75Z" fill="#6B6B6B"/>
<path d="M12.5599 2.4375V2.25C12.5599 1.93934 12.3081 1.6875 11.9974 1.6875C11.6868 1.6875 11.4349 1.93934 11.4349 2.25V2.4375H12.5599Z" fill="#6B6B6B"/>
<path d="M2.82761 15.4309C2.73652 15.3345 2.82175 15.1838 2.95435 15.1867C2.9764 15.1872 2.99851 15.1874 3.02071 15.1874H12.8395C14.2133 15.1874 15.4757 14.6101 16.3677 13.6632C16.4687 13.556 16.6486 13.6301 16.6187 13.7743C16.3189 15.2233 15.0353 16.3124 13.4975 16.3124H4.87244C4.06684 16.3124 3.34036 15.9737 2.82761 15.4309Z" fill="#6B6B6B"/>
</svg>
