<svg width="18" height="18" viewBox="0 0 18 18" fill="none" xmlns="http://www.w3.org/2000/svg">
<circle cx="6.75073" cy="4.5" r="3" fill="#6B6B6B"/>
<ellipse cx="6.75073" cy="12.751" rx="5.25" ry="3" fill="#6B6B6B"/>
<path d="M15.7497 12.7503C15.7497 13.9929 14.2231 15.0003 12.3591 15.0003C12.9083 14.4 13.2859 13.6466 13.2859 12.7513C13.2859 11.855 12.9074 11.1009 12.3572 10.5003C14.2211 10.5003 15.7497 11.5076 15.7497 12.7503Z" fill="#6B6B6B"/>
<path d="M13.4997 4.50049C13.4997 5.74313 12.4924 6.75049 11.2497 6.75049C10.9788 6.75049 10.719 6.70259 10.4784 6.6148C10.8332 5.99073 11.0359 5.26885 11.0359 4.49965C11.0359 3.73102 10.8335 3.00964 10.4792 2.38589C10.7195 2.29828 10.9791 2.25049 11.2497 2.25049C12.4924 2.25049 13.4997 3.25785 13.4997 4.50049Z" fill="#6B6B6B"/>
</svg>
