<svg width="35" height="35" viewBox="0 0 35 35" fill="none" xmlns="http://www.w3.org/2000/svg">
<rect width="35" height="35" rx="6" fill="#F3F4FF"/>
<path d="M21.3334 22.1669V23.8335H9.66669V22.1669C9.66669 22.1669 9.66669 18.8335 15.5 18.8335C21.3334 18.8335 21.3334 22.1669 21.3334 22.1669ZM18.4167 14.2502C18.4167 13.6733 18.2456 13.1094 17.9251 12.6298C17.6047 12.1501 17.1491 11.7763 16.6162 11.5555C16.0832 11.3348 15.4968 11.277 14.931 11.3896C14.3652 11.5021 13.8455 11.7799 13.4376 12.1878C13.0297 12.5957 12.7519 13.1154 12.6394 13.6812C12.5269 14.247 12.5846 14.8334 12.8054 15.3664C13.0261 15.8993 13.4 16.3548 13.8796 16.6753C14.3593 16.9958 14.9232 17.1669 15.5 17.1669C16.2736 17.1669 17.0154 16.8596 17.5624 16.3126C18.1094 15.7656 18.4167 15.0237 18.4167 14.2502ZM21.2834 18.8335C21.7956 19.23 22.2148 19.7339 22.5114 20.3098C22.808 20.8857 22.9748 21.5196 23 22.1669V23.8335H26.3334V22.1669C26.3334 22.1669 26.3334 19.1419 21.2834 18.8335ZM20.5 11.3335C19.9265 11.3309 19.3657 11.5023 18.8917 11.8252C19.3979 12.5325 19.6701 13.3804 19.6701 14.2502C19.6701 15.12 19.3979 15.9679 18.8917 16.6752C19.3657 16.9981 19.9265 17.1695 20.5 17.1669C21.2736 17.1669 22.0154 16.8596 22.5624 16.3126C23.1094 15.7656 23.4167 15.0237 23.4167 14.2502C23.4167 13.4766 23.1094 12.7348 22.5624 12.1878C22.0154 11.6408 21.2736 11.3335 20.5 11.3335Z" fill="#0452FB"/>
</svg>
