<svg width="35" height="35" viewBox="0 0 35 35" fill="none" xmlns="http://www.w3.org/2000/svg">
<rect width="35" height="35" rx="6" fill="#F3F4FF"/>
<path d="M21.3333 25.5C20.875 25.5 20.4828 25.3369 20.1567 25.0108C19.8305 24.6847 19.6672 24.2922 19.6667 23.8333V20.5C19.6667 20.0417 19.83 19.6494 20.1567 19.3233C20.4833 18.9972 20.8755 18.8339 21.3333 18.8333H24.6667C25.125 18.8333 25.5175 18.9967 25.8442 19.3233C26.1708 19.65 26.3339 20.0422 26.3333 20.5V23.8333C26.3333 24.2917 26.1703 24.6842 25.8442 25.0108C25.518 25.3375 25.1255 25.5006 24.6667 25.5H21.3333ZM9.66666 23V21.3333H17.1667V23H9.66666ZM21.3333 17.1667C20.875 17.1667 20.4828 17.0036 20.1567 16.6775C19.8305 16.3514 19.6672 15.9589 19.6667 15.5V12.1667C19.6667 11.7083 19.83 11.3161 20.1567 10.99C20.4833 10.6639 20.8755 10.5006 21.3333 10.5H24.6667C25.125 10.5 25.5175 10.6633 25.8442 10.99C26.1708 11.3167 26.3339 11.7089 26.3333 12.1667V15.5C26.3333 15.9583 26.1703 16.3508 25.8442 16.6775C25.518 17.0042 25.1255 17.1672 24.6667 17.1667H21.3333ZM9.66666 14.6667V13H17.1667V14.6667H9.66666Z" fill="#0452FB"/>
</svg>
