<svg width="35" height="35" viewBox="0 0 35 35" fill="none" xmlns="http://www.w3.org/2000/svg">
<rect width="35" height="35" rx="6" fill="#F3F4FF"/>
<path d="M25.6453 16.0328C25.3508 15.725 25.0461 15.4078 24.9312 15.1289C24.825 14.8734 24.8187 14.45 24.8125 14.0398C24.8008 13.2773 24.7883 12.4133 24.1875 11.8125C23.5867 11.2117 22.7227 11.1992 21.9602 11.1875C21.55 11.1812 21.1266 11.175 20.8711 11.0687C20.593 10.9539 20.275 10.6492 19.9672 10.3547C19.4281 9.83672 18.8156 9.25 18 9.25C17.1844 9.25 16.5727 9.83672 16.0328 10.3547C15.725 10.6492 15.4078 10.9539 15.1289 11.0687C14.875 11.175 14.45 11.1812 14.0398 11.1875C13.2773 11.1992 12.4133 11.2117 11.8125 11.8125C11.2117 12.4133 11.2031 13.2773 11.1875 14.0398C11.1812 14.45 11.175 14.8734 11.0687 15.1289C10.9539 15.407 10.6492 15.725 10.3547 16.0328C9.83672 16.5719 9.25 17.1844 9.25 18C9.25 18.8156 9.83672 19.4273 10.3547 19.9672C10.6492 20.275 10.9539 20.5922 11.0687 20.8711C11.175 21.1266 11.1812 21.55 11.1875 21.9602C11.1992 22.7227 11.2117 23.5867 11.8125 24.1875C12.4133 24.7883 13.2773 24.8008 14.0398 24.8125C14.45 24.8187 14.8734 24.825 15.1289 24.9312C15.407 25.0461 15.725 25.3508 16.0328 25.6453C16.5719 26.1633 17.1844 26.75 18 26.75C18.8156 26.75 19.4273 26.1633 19.9672 25.6453C20.275 25.3508 20.5922 25.0461 20.8711 24.9312C21.1266 24.825 21.55 24.8187 21.9602 24.8125C22.7227 24.8008 23.5867 24.7883 24.1875 24.1875C24.7883 23.5867 24.8008 22.7227 24.8125 21.9602C24.8187 21.55 24.825 21.1266 24.9312 20.8711C25.0461 20.593 25.3508 20.275 25.6453 19.9672C26.1633 19.4281 26.75 18.8156 26.75 18C26.75 17.1844 26.1633 16.5727 25.6453 16.0328ZM21.5672 16.5672L17.1922 20.9422C17.1341 21.0003 17.0652 21.0464 16.9893 21.0779C16.9135 21.1093 16.8321 21.1255 16.75 21.1255C16.6679 21.1255 16.5865 21.1093 16.5107 21.0779C16.4348 21.0464 16.3659 21.0003 16.3078 20.9422L14.4328 19.0672C14.3747 19.0091 14.3287 18.9402 14.2973 18.8643C14.2658 18.7884 14.2497 18.7071 14.2497 18.625C14.2497 18.5429 14.2658 18.4616 14.2973 18.3857C14.3287 18.3098 14.3747 18.2409 14.4328 18.1828C14.5501 18.0655 14.7091 17.9997 14.875 17.9997C14.9571 17.9997 15.0384 18.0158 15.1143 18.0473C15.1902 18.0787 15.2591 18.1247 15.3172 18.1828L16.75 19.6164L20.6828 15.6828C20.7409 15.6247 20.8098 15.5787 20.8857 15.5473C20.9616 15.5158 21.0429 15.4997 21.125 15.4997C21.2071 15.4997 21.2884 15.5158 21.3643 15.5473C21.4402 15.5787 21.5091 15.6247 21.5672 15.6828C21.6253 15.7409 21.6713 15.8098 21.7027 15.8857C21.7342 15.9616 21.7503 16.0429 21.7503 16.125C21.7503 16.2071 21.7342 16.2884 21.7027 16.3643C21.6713 16.4402 21.6253 16.5091 21.5672 16.5672Z" fill="#0452FB"/>
</svg>
